{"accessors" : [{"bufferView" : 0, "byteOffset" : 0, "componentType" : 5123, "count" : 21570, "type" : "SCALAR", "max" : [21569], "min" : [0]}, {"bufferView" : 1, "byteOffset" : 0, "componentType" : 5126, "count" : 21570, "type" : "VEC3", "max" : [87.66459655761719, 9.367879867553711, 24.684900283813477], "min" : [-87.66459655761719, -9.367879867553711, -24.684900283813477], "name" : "POSITION"}, {"bufferView" : 1, "byteOffset" : 12, "componentType" : 5126, "count" : 21570, "type" : "VEC3", "max" : [0.9984331130981445, 1.000002384185791, 0.9999991655349731], "min" : [-0.9970496892929077, -1.000002384185791, -0.9999684691429138], "name" : "NORMAL"}, {"bufferView" : 1, "byteOffset" : 24, "componentType" : 5126, "count" : 21570, "type" : "VEC2", "max" : [0.9556900262832642, 0.9793300032615662], "min" : [0.04416999965906143, 0.021679997444152832], "name" : "TEXCOORD_0"}], "asset" : {"generator" : "Aspose.3D 25.2.0", "version" : "2.0"}, "buffers" : [{"uri" : "data:application/octet-stream;base64,", "byteLength" : 733388}], "bufferViews" : [{"buffer" : 0, "byteOffset" : 0, "byteLength" : 43140, "target" : 34963}, {"buffer" : 0, "byteOffset" : 43144, "byteLength" : 690240, "byteStride" : 32, "target" : 34962}], "cameras" : [{"perspective" : {"aspectRatio" : 1.777777777777778, "yfov" : 0.8575560450553893, "zfar" : 10000, "znear" : 10.000000149011612}, "type" : "perspective", "name" : "Camera"}], "images" : [{"uri" : "C:\\Users\\User\\Documents\\sculptris\\Projects\\- Rock Walkway\\03\\- Models\\RockWalkway03_Fbx\\RockWalkway03_Base_Diffuse.png"}], "materials" : [{"name" : "RockWalkway3", "pbrMetallicRoughness" : {"baseColorFactor" : [1, 1, 1, 1], "baseColorTexture" : {"index" : 0, "texCoord" : 0}, "metallicFactor" : 1, "roughnessFactor" : 1}, "emissiveFactor" : [0.3569999933242798, 0.3569999933242798, 0.3569999933242798], "alphaMode" : "OPAQUE", "doubleSided" : false}], "meshes" : [{"primitives" : [{"attributes" : {"POSITION" : 1, "NORMAL" : 2, "TEXCOORD_0" : 3}, "indices" : 0, "material" : 0, "mode" : 4}], "name" : "RockWalkway_3"}], "nodes" : [{"matrix" : [100, 0, 0, 0, 0, 99.99999999999866, 1.629206707320911E-05, 0, 0, -1.629206707320911E-05, 99.99999999999866, 0, 0, 0, 0, 1], "mesh" : 0, "name" : "RockWalkway_3"}, {"camera" : 0, "matrix" : [-65.15583280329095, -44.52713576570855, -61.41703047373548, 0, -32.40134137821245, 89.53957451233616, -30.54208897441859, 0, 68.59205472129972, -1.0718647095919879E-05, -72.76763362396267, 0, 748.1131591796875, 534.3665161132812, 650.7639770507812, 1], "name" : "Camera"}], "samplers" : [{"magFilter" : 9729, "minFilter" : 9729, "wrapS" : 10497, "wrapT" : 10497}], "scene" : 0, "scenes" : [{"nodes" : [0, 1]}], "textures" : [{"sampler" : 0, "source" : 0, "name" : "Kd"}]}